<?xml version="1.0" standalone="no"?><!DOCTYPE svg PUBLIC "-//W3C//DTD SVG 1.1//EN" "http://www.w3.org/Graphics/SVG/1.1/DTD/svg11.dtd"><svg t="1532233820074" class="icon" style="" viewBox="0 0 1024 1024" version="1.1" xmlns="http://www.w3.org/2000/svg" p-id="2861" xmlns:xlink="http://www.w3.org/1999/xlink" width="200" height="200"><defs><style type="text/css"></style></defs><path d="M512.236814 3.315392C231.288051 3.315392 3.560976 231.060009 3.560976 512.008771s227.727075 508.675837 508.675838 508.675837c280.948762 0 508.693379-227.727075 508.693379-508.675837S793.185576 3.315392 512.236814 3.315392z m235.480531 652.974321c-11.454767 4.49069-30.680531-15.103452-45.85415-37.013105-10.08651 22.786741-22.786741 50.695675-42.766801 67.72872 26.768719 8.402501 44.924437 23.698912 44.924437 41.328376 0 26.645927-40.907375 48.239829-91.375007 48.239829-44.099974 0-80.902578-16.506792-89.462955-38.451529-3.631143 0.175418-7.227203 0.456086-10.910972 0.456086-3.99952 0-7.911332-0.315752-11.858227-0.491169-8.542835 21.962278-45.362981 38.486612-89.498038 38.486612-50.467632 0-91.375006-21.593901-91.375007-48.239829 0-17.804882 18.471469-33.189002 45.661191-41.538877-19.892351-16.997961-30.978741-45.924317-41.012625-68.623349-15.173619 21.909653-35.925516 42.591383-47.397825 38.118235-17.804882-6.964077-17.103212-51.274552 1.543675-98.970587 15.120994-38.626946 37.486732-58.799966 54.677653-73.13158 2.841764-4.210021 5.788779-8.367418 9.034004-12.349396-4.210021-15.138535-6.648325-31.048908-6.648325-47.538159 0-97.690039 79.183486-176.873525 176.873524-176.873524 97.654955 0 176.873525 79.183486 176.873525 176.873524 0 16.489251-2.438304 32.399623-6.648326 47.538159 3.245225 3.99952 6.209782 8.139375 9.034005 12.366938 13.103692 16.103332 39.574201 34.504634 54.677653 73.149122 18.611803 47.678493 19.295931 91.988968 1.508591 98.935503z" fill="#00ADDF" p-id="2862"></path></svg>