<?xml version="1.0" standalone="no"?><!DOCTYPE svg PUBLIC "-//W3C//DTD SVG 1.1//EN" "http://www.w3.org/Graphics/SVG/1.1/DTD/svg11.dtd"><svg t="1532233775206" class="icon" style="" viewBox="0 0 1024 1024" version="1.1" xmlns="http://www.w3.org/2000/svg" p-id="2239" xmlns:xlink="http://www.w3.org/1999/xlink" width="200" height="200"><defs><style type="text/css"></style></defs><path d="M316.099285 317.03868c-19.833721 0-39.850613 13.108552-39.850614 33.010834 0 19.85521 20.016893 33.125445 39.850614 33.125445 19.833721 0 33.034371-13.270235 33.03437-33.125445 0-19.901259-13.20065-33.010835-33.03437-33.010834zM587.364455 508.99148c-13.176091 0-26.467815 13.270235-26.467815 26.467815 0 13.382798 13.291724 26.467815 26.467815 26.467814 20.016893 0 33.123398-13.085016 33.123398-26.467814 0-13.19758-13.106506-26.467815-33.123398-26.467815z" fill="#00d205" p-id="2240"></path><path d="M954.136839 199.48024c0-74.852802-60.666708-135.51951-135.51951-135.519509h-619.116622c-74.852802 0-135.518486 60.666708-135.518487 135.519509v619.116623c0 74.852802 60.665685 135.51951 135.518487 135.51951h619.116622c74.852802 0 135.51951-60.666708 135.51951-135.51951v-619.116623z m-552.069601 455.255625c-33.031301 0-59.591213-6.748704-92.693122-13.291724l-92.510973 46.393633 26.467815-79.608106c-66.25089-46.302559-105.895819-105.963357-105.895819-178.663122 0-125.909641 119.164007-225.054709 264.631076-225.054709 130.119523 0 244.110717 79.219249 267.011286 185.845709-8.41874-0.937348-16.906042-1.555425-25.484417-1.555426-125.703957 0-224.987171 93.815689-224.987171 209.429847 0 19.23918 2.996241 37.768185 8.165984 55.451939-8.163937 0.639566-16.400528 1.051959-24.704659 1.051959z m390.358569 92.695169l19.902283 66.134233-72.585156-39.759539c-26.467815 6.634094-53.05024 13.291724-79.403444 13.291724-125.909641 0-225.078245-86.059028-225.078245-192.043874 0-105.801674 99.168604-192.045921 225.078245-192.045921 118.910227 0 224.780463 86.244246 224.780463 192.045921-0.001023 59.682287-39.575344 112.526843-92.694146 152.377456z" fill="#00d205" p-id="2241"></path><path d="M732.923622 508.99148c-13.085016 0-26.282596 13.270235-26.282597 26.467815 0 13.382798 13.19758 26.467815 26.282597 26.467814 19.833721 0 33.125445-13.085016 33.125445-26.467814 0-13.19758-13.290701-26.467815-33.125445-26.467815zM501.30338 383.174959c19.925818 0 33.125445-13.270235 33.125445-33.125445 0-19.902282-13.20065-33.010835-33.125445-33.010834-19.831674 0-39.733956 13.108552-39.733956 33.010834 0 19.85521 19.902282 33.125445 39.733956 33.125445z" fill="#00d205" p-id="2242"></path></svg>